<?xml version="1.0" standalone="no"?>
<!DOCTYPE svg PUBLIC "-//W3C//DTD SVG 20010904//EN"
 "http://www.w3.org/TR/2001/REC-SVG-20010904/DTD/svg10.dtd">
<svg version="1.0" xmlns="http://www.w3.org/2000/svg"
 width="773.000000pt" height="699.000000pt" viewBox="0 0 773.000000 699.000000"
 preserveAspectRatio="xMidYMid meet">
<metadata>
Created by potrace 1.15, written by Peter Selinger 2001-2017
</metadata>
<g transform="translate(0.000000,699.000000) scale(0.100000,-0.100000)"
fill="#000000" stroke="none">
<path d="M3694 6915 c-12 -8 -24 -12 -27 -8 -4 3 -12 1 -19 -4 -7 -6 -20 -9
-30 -8 -15 3 -27 -17 -32 -56 -4 -25 -33 -52 -39 -36 -8 21 -19 -42 -13 -69 5
-17 12 -24 21 -20 9 3 15 0 15 -8 0 -15 37 -92 42 -88 1 2 10 1 18 -2 8 -3 24
-6 35 -8 23 -4 40 -64 21 -76 -10 -6 -14 -8 -34 -11 -13 -2 -14 -128 -1 -137
8 -5 9 -3 4 5 -5 9 -1 9 14 -1 28 -17 27 -46 -1 -50 -17 -2 -24 -11 -26 -33
-6 -46 15 -102 39 -108 27 -7 21 -41 -8 -45 -12 -2 -24 -13 -27 -27 -4 -14
-15 -25 -28 -27 -23 -3 -31 -25 -41 -108 -3 -25 -8 -34 -20 -32 -9 1 -16 -5
-16 -15 -1 -10 -3 -64 -5 -121 -4 -105 0 -146 14 -137 4 3 12 -8 18 -23 6 -15
14 -36 18 -47 4 -11 6 -23 6 -27 -1 -5 5 -8 13 -8 17 0 62 -93 48 -97 -4 -2
-23 -12 -40 -23 -28 -17 -33 -25 -33 -59 0 -48 9 -73 23 -64 6 4 7 -4 2 -23
-20 -75 -22 -104 -9 -115 17 -14 18 -47 3 -86 -6 -15 -42 -58 -81 -94 l-71
-67 7 -53 c4 -29 18 -71 32 -94 21 -37 24 -53 24 -148 l0 -107 39 -24 c22 -14
42 -30 46 -36 16 -26 -56 -70 -81 -50 -7 6 -16 25 -19 42 -6 26 -10 29 -36 26
-17 -3 -34 1 -40 9 -19 22 -48 15 -55 -13 -4 -14 -4 -62 -2 -108 4 -70 10 -94
41 -157 20 -41 47 -90 59 -108 19 -30 23 -52 26 -155 2 -67 5 -126 7 -133 3
-8 19 -10 53 -6 57 6 89 -7 103 -43 11 -31 25 -635 15 -687 -5 -28 -12 -37
-26 -37 -18 0 -20 8 -21 73 -1 39 -3 79 -4 87 -1 8 -3 52 -4 98 -1 75 -3 82
-21 82 -11 0 -20 -3 -20 -7 -1 -55 -12 -251 -16 -291 -5 -47 -9 -55 -33 -63
-21 -7 -30 -21 -41 -57 -7 -26 -14 -55 -14 -64 -1 -22 -9 -22 -66 -7 -96 26
-110 10 -110 -127 0 -106 10 -139 73 -235 35 -53 30 -120 -7 -90 -27 23 -392
33 -626 18 -69 -5 -192 -10 -275 -11 -82 -2 -171 -8 -196 -14 -25 -6 -57 -9
-70 -6 -13 2 -82 10 -154 18 -88 9 -145 20 -177 35 -26 11 -60 21 -75 21 -45
1 -116 20 -135 37 -9 8 -24 13 -32 10 -8 -3 -19 0 -24 6 -13 17 -21 225 -10
265 7 23 5 48 -6 86 -9 30 -16 69 -16 88 0 18 -4 48 -9 65 -7 23 -5 46 5 80
11 35 14 72 9 138 -3 50 -8 130 -10 179 -5 85 -9 105 -20 95 -7 -7 -20 -256
-18 -334 6 -191 4 -245 -12 -290 -12 -35 -14 -66 -9 -119 3 -40 1 -127 -5
-194 -14 -143 -9 -162 45 -162 21 0 37 -6 40 -14 6 -15 35 -25 94 -32 46 -6
74 -15 81 -26 3 -5 39 -12 80 -15 43 -3 91 -14 113 -26 35 -17 67 -20 301 -25
165 -3 291 -1 341 6 43 6 104 14 134 18 30 3 59 8 63 11 4 2 61 7 126 10 119
6 191 -1 191 -16 0 -12 -54 -21 -184 -31 -61 -5 -127 -14 -146 -21 -19 -6 -85
-15 -146 -19 -74 -5 -122 -14 -145 -26 -25 -13 -63 -18 -149 -21 -158 -4 -200
-9 -235 -24 -35 -15 -436 -24 -482 -10 -66 20 -132 32 -185 33 -54 1 -64 7
-58 33 6 25 -1 198 -10 270 -6 44 -15 125 -20 180 -12 129 -27 231 -36 246 -4
6 -8 146 -9 311 -2 303 -5 328 -39 315 -12 -5 -16 -22 -17 -69 0 -35 -2 -72
-4 -83 -2 -11 -4 -87 -4 -170 -1 -256 -2 -285 -17 -320 -8 -19 -14 -60 -15
-92 0 -32 -9 -128 -19 -213 -11 -85 -22 -241 -24 -347 -6 -205 -7 -201 44
-208 52 -6 89 -17 99 -29 8 -10 43 -14 123 -15 111 -2 169 -10 224 -32 17 -7
104 -13 207 -15 l179 -3 10 30 c5 16 19 34 30 40 11 6 88 13 170 15 83 2 203
12 267 23 64 11 154 24 201 30 47 6 125 18 173 26 69 13 141 16 325 13 257 -4
310 -13 457 -77 54 -23 72 -26 185 -26 113 0 131 3 185 26 33 15 98 37 145 50
80 23 101 24 355 24 222 0 283 -3 341 -17 39 -10 104 -20 145 -24 41 -3 119
-14 174 -24 55 -10 168 -21 250 -25 197 -8 204 -10 220 -50 l14 -32 173 2
c146 2 183 6 235 24 50 17 86 21 179 21 98 0 122 3 148 20 18 10 49 20 70 22
45 3 60 24 52 76 -3 20 -8 108 -11 195 -18 541 -19 558 -39 615 -9 24 -15 72
-14 110 3 174 -4 336 -17 372 -7 21 -11 41 -8 44 4 3 2 6 -4 6 -12 0 -22 -48
-29 -140 -3 -36 -9 -88 -13 -116 -5 -32 -3 -63 4 -85 14 -40 4 -159 -19 -222
-16 -45 -39 -440 -35 -601 1 -47 -1 -89 -5 -93 -3 -4 -25 -8 -49 -9 -23 -2
-53 -5 -67 -7 -40 -8 -92 -17 -135 -24 -22 -3 -123 -7 -225 -9 -138 -2 -198 1
-235 12 -27 8 -59 16 -70 19 -11 3 -74 6 -140 6 -119 0 -191 11 -230 34 -11 6
-64 13 -118 14 -59 1 -112 8 -134 17 -20 9 -89 20 -153 24 -143 11 -200 20
-200 31 0 16 74 22 204 16 72 -3 147 -11 166 -17 62 -18 189 -25 475 -24 244
0 284 3 312 17 18 10 67 22 108 27 41 5 86 17 99 25 14 9 46 19 73 22 80 8 84
9 91 20 8 11 68 34 75 27 2 -2 12 11 22 30 17 32 18 43 6 158 -8 82 -9 137 -3
165 12 53 0 119 -26 145 -19 20 -19 20 -40 -14 -30 -50 -35 -77 -22 -117 9
-28 9 -61 -2 -151 l-13 -114 -75 -27 c-41 -15 -91 -28 -110 -28 -19 -1 -52
-10 -73 -21 -28 -15 -71 -24 -150 -30 -62 -6 -130 -13 -152 -17 -70 -11 -79
-11 -127 2 -37 11 -48 11 -48 2 0 -9 -2 -9 -8 -1 -17 26 -958 36 -999 11 -27
-17 -16 34 25 117 l44 89 -4 114 c-3 99 -7 117 -23 129 -24 18 -65 17 -89 -1
-33 -25 -52 -19 -53 18 0 17 -7 91 -16 162 -16 130 -45 657 -49 896 -3 122 -2
127 24 165 15 21 32 62 38 89 7 28 16 66 21 86 11 46 11 160 0 177 -4 8 -21
12 -37 10 -24 -3 -30 -9 -39 -46 -12 -53 -37 -70 -62 -45 -26 26 -30 275 -7
381 24 107 17 125 -74 208 -59 55 -81 82 -91 114 -7 23 -9 47 -4 53 11 17 4
259 -8 252 -5 -4 -9 -2 -9 3 0 5 -9 12 -20 15 -15 4 -20 14 -20 41 0 32 3 36
25 36 15 0 25 5 24 13 -5 25 13 77 26 77 31 0 40 42 38 184 0 76 -5 141 -10
145 -21 15 -43 63 -43 93 0 28 -5 35 -30 45 -16 6 -30 18 -30 26 0 9 -10 19
-22 23 -13 4 -26 11 -30 17 -9 15 2 37 18 37 8 0 14 5 14 11 0 5 4 8 9 5 4 -3
9 24 10 59 2 60 0 65 -19 65 -27 0 -36 25 -19 56 19 36 19 129 -1 129 -19 0
-24 24 -11 58 8 19 18 27 35 27 14 0 28 5 31 10 4 6 10 8 15 5 11 -7 30 27 30
54 0 11 7 27 17 36 9 9 17 30 18 46 2 17 0 28 -3 25 -8 -8 -28 36 -36 77 -5
24 -12 36 -24 36 -38 1 -82 14 -82 25 0 6 -5 4 -10 -4 -6 -10 -10 -11 -10 -2
0 6 -11 12 -25 12 -14 0 -25 -4 -25 -10 0 -5 3 -9 8 -9 19 3 22 -2 9 -16 -22
-22 -8 -79 21 -83 17 -3 22 -9 20 -25 -6 -43 -150 -45 -156 -1 -2 14 6 23 28
31 27 10 30 15 30 57 0 27 -5 46 -11 46 -6 0 -8 -7 -5 -16 3 -8 2 -12 -4 -9
-6 3 -10 13 -10 21 0 18 -10 18 -36 -1z m186 -3065 l33 -31 -6 -357 c-7 -365
-11 -422 -30 -434 -13 -8 -29 0 -22 12 2 4 0 32 -5 61 -5 30 -11 107 -14 173
-4 112 -15 152 -35 130 -5 -5 -11 -80 -15 -168 -7 -165 -12 -206 -27 -206 -22
0 -29 65 -34 298 -3 136 -7 300 -10 366 l-5 118 34 34 c45 45 91 47 136 4z
m270 -28 c12 -9 25 -32 28 -50 4 -18 4 -140 0 -272 -12 -422 -14 -440 -48
-440 -24 0 -26 12 -29 185 -2 137 -9 180 -27 162 -4 -3 -8 -41 -10 -84 -3 -43
-6 -103 -8 -133 -3 -30 -5 -62 -5 -70 -1 -10 -5 -9 -15 6 -19 26 -34 213 -36
429 0 88 -1 167 -2 175 -5 66 31 110 90 110 23 0 49 -7 62 -18z"/>
<path d="M2905 2004 c-27 -7 -99 -19 -160 -25 -60 -6 -153 -19 -207 -30 -137
-27 -314 -26 -369 2 -29 14 -55 19 -92 17 l-52 -3 -3 -47 c-3 -47 -3 -48 27
-48 18 0 35 -8 44 -20 7 -11 24 -21 37 -23 12 -2 33 -13 45 -25 13 -12 30 -22
38 -22 9 0 28 -11 43 -25 15 -14 35 -25 45 -25 11 0 28 -9 39 -20 11 -11 35
-23 53 -27 18 -3 43 -14 56 -25 13 -10 35 -18 48 -18 13 0 35 -11 48 -25 14
-13 25 -23 25 -21 0 11 94 -17 112 -34 15 -14 35 -20 64 -20 29 0 47 -6 56
-17 15 -20 26 -24 87 -29 24 -2 52 -11 62 -20 10 -9 47 -19 91 -23 88 -9 97
-12 118 -31 12 -12 42 -16 119 -18 56 -1 111 -6 120 -12 10 -5 21 -6 25 -3 3
3 6 1 6 -6 0 -7 5 -9 10 -6 6 3 10 0 10 -7 0 -9 3 -9 10 2 5 8 10 10 10 4 0
-15 48 -17 405 -16 341 0 369 2 427 26 25 11 68 16 130 16 85 0 96 2 122 25
25 22 39 25 103 25 49 0 73 4 73 12 0 6 3 9 6 5 4 -3 13 0 21 8 8 8 28 16 44
16 16 1 34 3 39 4 6 1 21 3 35 4 14 0 25 7 25 15 0 18 27 27 80 28 22 0 44 6
48 13 11 18 47 35 77 35 14 0 37 11 51 25 13 14 28 24 32 24 28 -4 72 3 67 10
-7 13 27 31 58 31 13 0 33 11 45 25 12 14 31 26 42 26 32 2 34 3 58 27 12 12
28 22 35 22 7 0 24 11 39 25 15 14 33 22 41 19 9 -3 25 6 38 20 13 14 35 27
49 29 22 4 25 9 25 48 l0 44 -47 3 c-32 2 -62 -3 -94 -17 -39 -18 -66 -21
-168 -21 -67 1 -152 7 -191 16 -38 8 -129 21 -202 29 -73 8 -159 21 -191 30
-45 11 -114 15 -274 15 -183 0 -223 -3 -269 -19 -30 -10 -76 -21 -104 -25 -27
-4 -65 -16 -84 -27 -47 -27 -144 -49 -222 -49 -64 0 -170 28 -214 56 -11 7
-40 16 -65 19 -25 4 -71 15 -103 26 -50 17 -86 19 -280 18 -156 -1 -237 -5
-272 -15z"/>
<path d="M4589 1289 c-19 -19 -21 -29 -15 -90 l6 -69 -42 0 c-29 0 -49 -7 -65
-21 l-22 -22 -42 42 c-23 22 -49 41 -58 41 -21 0 -44 -15 -39 -26 1 -5 -23
-10 -55 -12 -51 -3 -59 -1 -64 17 -7 26 -33 32 -104 22 -3 -1 -6 -20 -5 -43 1
-40 -1 -43 -27 -46 -15 -2 -32 -12 -37 -23 -8 -14 -21 -19 -52 -19 l-41 0 23
24 c15 17 21 33 18 50 -6 30 25 48 61 34 23 -8 24 -8 17 38 -3 26 -6 55 -6 65
0 17 -8 19 -65 19 -61 0 -66 -2 -75 -25 -11 -30 -21 -31 -45 -5 -15 16 -31 20
-87 20 -42 0 -80 -6 -98 -15 -25 -13 -30 -13 -30 -1 0 20 -22 26 -92 26 -52 0
-63 -3 -80 -25 -11 -14 -26 -25 -34 -25 -8 0 -14 -7 -14 -15 0 -8 -9 -20 -20
-27 -24 -16 -30 -98 -6 -98 7 0 19 -7 26 -15 11 -13 8 -20 -21 -45 -31 -27
-69 -39 -69 -23 0 4 10 17 21 30 18 18 20 25 9 38 -18 21 -48 19 -55 -6 -7
-22 -51 -24 -49 -1 1 6 2 26 3 43 1 24 5 30 17 25 40 -15 61 56 26 87 -30 28
-65 21 -100 -19 -18 -20 -32 -43 -32 -52 -1 -14 -3 -13 -12 3 -6 11 -26 36
-43 56 -18 20 -34 42 -37 50 -3 10 -23 14 -71 14 -36 0 -68 -3 -72 -7 -3 -3
-7 -34 -8 -69 -2 -56 0 -64 18 -67 35 -7 82 -65 88 -108 3 -21 7 -51 10 -66 2
-15 0 -25 -4 -22 -5 3 -9 -24 -9 -60 0 -61 -2 -66 -25 -72 -13 -3 -24 -9 -23
-13 1 -3 -2 -14 -7 -24 -4 -10 -5 -59 -3 -108 5 -86 7 -92 39 -125 18 -18 30
-37 26 -41 -4 -3 -7 -1 -7 5 0 7 -7 12 -15 12 -18 0 -45 -50 -45 -83 0 -26 32
-61 45 -50 4 5 5 2 1 -5 -4 -6 -3 -12 1 -12 5 0 10 -15 11 -32 4 -66 13 -88
34 -88 11 0 29 -11 40 -25 19 -24 23 -25 150 -25 124 0 131 1 160 25 16 14 42
25 58 25 15 0 30 7 33 15 4 8 21 21 39 28 18 8 39 21 47 30 7 10 22 17 32 17
10 0 20 8 23 18 3 10 22 25 42 34 35 16 37 16 83 -12 68 -40 88 -44 116 -26
32 21 32 21 31 -21 l-1 -38 52 -3 c44 -3 53 0 63 18 11 20 13 20 29 6 12 -11
36 -16 73 -16 37 0 60 -5 68 -15 7 -8 9 -15 4 -15 -4 0 1 -6 12 -14 10 -8 20
-19 20 -25 1 -6 2 -15 3 -21 2 -15 204 -13 219 2 16 16 15 63 -1 76 -7 6 -36
12 -65 13 -29 2 -52 6 -52 10 0 11 27 29 50 34 32 6 35 12 23 45 -17 45 10 55
54 20 37 -29 99 -26 145 5 37 25 68 33 68 17 0 -12 -44 -52 -58 -52 -7 0 -12
-6 -12 -14 0 -7 -7 -19 -15 -26 -8 -7 -15 -28 -15 -46 0 -28 5 -36 25 -44 15
-6 25 -17 25 -30 0 -18 6 -20 65 -20 61 0 65 1 65 23 0 12 9 28 20 35 33 20
27 68 -11 87 -27 14 -30 21 -27 53 3 34 1 37 -25 40 -26 3 -27 5 -21 40 9 48
11 52 35 52 17 0 19 8 20 103 1 129 12 223 22 187 21 -79 27 -130 27 -266 0
-173 2 -176 74 -173 l46 3 1 85 c0 47 0 228 -1 401 -2 351 0 341 -72 384 -49
29 -72 28 -93 -1 -20 -29 -55 -20 -55 14 0 13 -5 33 -10 44 -15 27 -73 26
-101 -2z m-9 -406 c0 -71 3 -138 6 -150 6 -21 3 -23 -33 -23 -53 0 -81 30 -79
85 1 39 2 40 39 43 l38 3 -3 47 -3 47 -73 0 c-39 0 -72 3 -72 7 0 19 49 38 96
38 37 0 54 4 58 15 3 8 10 15 16 15 6 0 10 -47 10 -127z m-940 82 c0 -17 -6
-25 -17 -25 -9 0 -35 -12 -56 -27 -37 -26 -39 -29 -33 -70 l5 -42 -57 -3 -57
-3 -5 -45 c-4 -37 -9 -45 -25 -45 -11 0 -24 10 -30 22 -11 26 -32 33 -101 33
-60 0 -74 -12 -74 -62 l0 -38 -51 0 c-47 0 -50 2 -47 23 2 14 11 23 25 25 18
3 24 12 29 43 6 37 8 39 44 39 23 0 48 8 64 21 15 12 45 23 67 26 25 4 44 13
50 24 6 12 21 19 39 19 20 0 38 9 52 25 12 14 27 25 34 25 6 0 19 11 28 24 12
19 26 26 63 29 27 2 49 4 51 5 1 1 2 -9 2 -23z m690 -171 c71 -17 59 -38 -26
-44 -39 -3 -78 -11 -88 -19 -9 -7 -37 -18 -63 -22 -26 -5 -51 -13 -56 -18 -8
-8 -11 -69 -5 -105 3 -18 -4 -20 -55 -22 -47 -1 -62 -6 -73 -23 -28 -39 -44
-27 -37 29 5 44 4 50 -11 44 -31 -12 -66 4 -66 31 0 14 -4 25 -9 25 -13 0 -20
25 -25 97 -6 69 5 113 29 113 17 0 19 -14 5 -40 -19 -35 -2 -49 63 -52 l62 -3
1 -71 c0 -78 6 -94 35 -94 14 0 19 7 19 28 0 17 3 22 8 15 7 -10 12 -10 26 0
16 12 16 14 -4 40 l-21 26 28 7 c70 15 78 20 81 51 2 18 -3 37 -13 47 -26 25
-3 44 58 48 52 3 52 3 72 -37 17 -34 27 -42 65 -51z m-687 -140 c0 -131 -10
-174 -40 -174 -7 0 -28 -13 -46 -30 -19 -16 -42 -30 -50 -30 -9 0 -20 -7 -25
-16 -5 -8 -28 -20 -52 -25 -23 -5 -54 -19 -68 -29 -20 -16 -40 -20 -107 -20
-54 0 -86 4 -93 13 -5 6 -14 37 -19 67 -8 52 -10 55 -45 65 -52 14 -54 21 -7
23 44 2 69 16 69 37 0 7 9 15 20 18 12 3 20 14 20 26 0 18 6 21 44 21 54 0 64
-12 67 -78 1 -28 6 -57 10 -64 8 -12 49 -19 49 -8 0 3 15 4 34 2 18 -2 44 1
56 8 20 11 21 18 19 91 -4 93 0 99 75 99 l48 0 -4 53 c-3 28 -9 60 -13 70 -7
16 -3 18 25 15 l33 -3 0 -131z"/>
<path d="M5741 1010 c4 -287 2 -300 -46 -300 -34 0 -55 -10 -55 -26 0 -8 -13
-17 -30 -20 -32 -7 -33 -10 -32 -61 2 -55 -14 -83 -46 -83 -18 0 -36 -9 -50
-25 -12 -14 -30 -25 -41 -25 -10 0 -21 -7 -25 -15 -3 -8 -18 -21 -33 -27 -15
-7 -34 -21 -41 -30 -7 -10 -19 -18 -26 -18 -7 0 -23 -11 -36 -25 -25 -27 -81
-34 -110 -14 -13 8 -12 12 8 26 43 30 25 95 -33 118 -19 7 -19 8 5 15 14 5 42
8 63 9 30 1 40 6 44 21 3 11 9 20 13 20 5 0 15 3 24 6 13 5 16 -1 16 -25 0
-26 6 -33 36 -46 51 -21 65 -18 92 16 27 34 24 56 -10 61 -37 5 -35 37 2 45
17 3 37 14 43 24 7 11 20 19 29 19 15 0 18 9 18 50 0 44 -3 50 -21 50 -13 0
-25 11 -35 35 -19 47 -19 50 20 52 32 3 34 0 42 -35 4 -20 7 -40 6 -43 -1 -4
18 -14 41 -24 51 -22 67 -25 67 -16 0 3 14 12 30 18 28 10 30 15 30 61 0 50
-1 51 -32 54 -37 3 -45 21 -11 26 12 2 24 9 26 17 8 18 -3 56 -14 49 -5 -3 -9
2 -9 11 0 15 -5 14 -37 -5 -21 -12 -43 -31 -51 -41 -21 -31 -42 -24 -42 14 0
36 15 57 40 57 9 0 25 9 35 19 10 12 33 21 59 23 l41 3 -1 55 c-1 30 -5 85 -9
123 l-8 67 -61 0 c-60 -1 -96 -15 -96 -39 0 -6 -5 -11 -11 -11 -9 0 -10 -20
-5 -70 6 -64 5 -70 -13 -70 -10 0 -21 -9 -24 -20 -4 -15 -14 -20 -42 -20 -32
0 -36 2 -29 18 5 9 8 36 7 59 0 38 2 42 26 45 24 3 26 7 29 56 l3 52 -56 0
c-49 0 -58 -3 -62 -21 -5 -18 -11 -20 -58 -15 -48 6 -52 5 -65 -19 -17 -31
-26 -32 -34 -1 -5 20 -16 27 -59 36 -28 7 -65 10 -82 8 -30 -3 -30 -3 -30 -68
0 -60 2 -65 23 -68 13 -2 26 -11 29 -20 3 -9 17 -26 29 -37 22 -19 24 -28 25
-140 1 -118 1 -120 -22 -125 -32 -8 -38 -55 -31 -238 5 -136 4 -142 -14 -142
-31 0 -44 -20 -44 -70 0 -52 7 -65 38 -74 12 -4 22 -15 22 -26 0 -10 9 -21 19
-25 11 -3 23 -15 26 -26 6 -17 16 -19 84 -19 61 0 82 4 92 17 8 9 29 22 47 30
17 7 32 18 32 24 0 5 15 16 33 24 19 8 39 21 47 29 7 9 18 16 24 16 7 0 22 11
34 25 12 14 33 25 46 25 13 0 31 3 39 6 9 3 29 -7 48 -25 30 -30 36 -31 115
-31 l82 0 11 31 c6 18 11 49 11 70 l0 38 103 0 c93 0 100 -1 82 -15 -11 -8
-31 -17 -45 -21 -35 -8 -52 -31 -39 -55 12 -23 4 -38 -21 -38 -10 0 -23 -8
-29 -17 -5 -10 -24 -22 -43 -29 -31 -10 -33 -14 -33 -55 l0 -44 172 -2 172 -2
-3 27 c-2 15 -7 35 -11 45 -6 15 -1 17 34 17 32 0 48 6 65 25 20 21 32 25 85
25 61 0 63 2 60 38 0 4 10 10 23 13 17 4 22 11 20 29 -3 29 -18 40 -46 34 -12
-2 -59 -7 -105 -11 -64 -5 -88 -11 -100 -25 -28 -32 -64 -19 -72 27 -2 11 -14
24 -27 30 -28 12 -28 20 0 39 32 23 74 20 92 -6 13 -18 30 -24 88 -30 102 -10
155 -1 175 28 8 13 24 24 34 24 13 0 20 10 25 36 3 19 15 44 26 53 14 13 21
38 25 89 4 50 9 69 18 66 18 -7 24 -59 25 -204 1 -69 4 -139 6 -156 5 -29 8
-31 59 -33 49 -2 55 0 60 21 8 35 10 192 7 500 l-3 277 -45 45 c-38 39 -51 46
-84 46 -28 0 -40 -4 -41 -15 -1 -8 -3 -19 -4 -25 -1 -5 -3 -33 -4 -62 -1 -52
-10 -61 -15 -15 -1 14 -10 32 -19 42 -9 9 -17 32 -17 51 0 33 -1 34 -42 34
-79 0 -73 27 -78 -358 0 -8 -9 -12 -22 -10 -16 2 -24 11 -26 28 -7 63 -14 90
-23 85 -5 -4 -9 -2 -9 3 0 15 -37 2 -57 -20 -14 -16 -18 -37 -18 -104 l0 -84
-113 0 -114 0 7 40 c7 42 7 42 -47 54 -21 5 -28 12 -28 31 0 14 -9 34 -20 45
-13 13 -20 33 -20 60 l0 40 33 -20 c17 -11 42 -20 53 -20 22 0 34 -17 34 -49
0 -10 9 -26 20 -36 11 -10 20 -26 20 -36 0 -26 25 -46 52 -43 12 1 33 3 44 3
18 1 23 9 28 50 6 43 28 80 45 74 3 -1 6 25 5 58 -1 60 -1 61 25 56 14 -2 33
-7 42 -11 30 -13 49 20 49 88 0 35 -5 67 -12 74 -7 7 -40 12 -80 12 -63 0 -69
-2 -77 -24 -5 -13 -19 -26 -30 -29 -13 -3 -21 -13 -21 -26 0 -32 -47 -29 -62
4 -11 24 -16 25 -89 25 l-78 0 -5 -42 c-3 -24 -7 -56 -9 -73 l-2 -30 -17 35
c-10 19 -19 64 -20 100 l-3 65 -58 1 -59 2 3 -268z"/>
<path d="M926 1245 c-13 -14 -27 -25 -32 -25 -5 0 -9 -19 -8 -42 2 -59 2 -58
22 -58 25 0 82 -61 82 -87 0 -25 27 -56 41 -48 5 4 9 -16 9 -44 0 -47 -2 -50
-27 -53 -16 -2 -28 -9 -29 -18 -1 -8 -2 -38 -2 -67 -2 -45 -5 -52 -24 -55 -22
-3 -23 -8 -26 -91 -3 -81 -1 -89 17 -94 11 -3 22 -16 25 -29 6 -22 11 -24 66
-24 62 0 69 -6 54 -44 -5 -12 -10 -14 -19 -6 -8 6 -31 10 -52 8 l-38 -3 -3
-82 c-3 -102 7 -147 35 -151 11 -2 25 -13 31 -26 9 -19 21 -24 73 -30 94 -11
188 2 222 30 16 13 35 24 44 24 16 0 59 30 97 67 39 39 56 30 56 -28 0 -28 4
-59 10 -69 19 -35 180 -39 180 -5 0 8 7 21 16 29 9 9 17 24 18 33 2 15 20 17
135 17 114 1 134 3 145 18 7 10 28 21 47 25 19 3 44 17 56 30 23 24 43 30 43
14 0 -6 -9 -16 -19 -23 -27 -19 -31 -94 -7 -131 17 -25 23 -27 87 -27 l69 0 0
29 c0 17 5 33 10 36 6 3 10 21 10 38 0 18 -4 27 -8 21 -4 -5 -20 -10 -37 -10
-36 1 -49 34 -16 43 24 6 29 44 8 62 -11 8 -18 6 -32 -9 -20 -22 -59 -28 -53
-7 3 6 15 17 28 24 13 6 27 19 32 27 15 27 34 18 47 -24 6 -22 17 -40 23 -40
7 0 29 -12 50 -26 29 -20 46 -25 78 -22 33 3 40 0 40 -14 0 -9 -4 -20 -10 -23
-18 -11 -11 -47 10 -52 11 -3 23 -16 26 -30 6 -23 10 -24 73 -21 l66 3 3 53
c2 36 0 52 -7 47 -7 -4 -11 13 -11 49 0 54 -5 64 -45 78 -5 1 -8 10 -6 18 4
22 22 41 31 35 16 -10 19 13 21 168 0 87 4 157 7 157 23 0 34 -67 39 -241 l6
-186 58 -2 59 -2 1 78 c0 43 0 224 -1 403 l-1 325 -32 33 c-35 37 -77 62 -102
62 -24 0 -47 -27 -45 -53 1 -12 1 -35 0 -52 -1 -29 -2 -29 -12 -7 -6 12 -15
22 -19 22 -5 0 -12 18 -15 39 -5 29 -12 41 -28 45 -40 11 -65 6 -76 -14 -14
-27 -60 -27 -60 -1 0 23 -19 31 -76 31 -37 0 -44 -3 -44 -19 0 -27 -18 -36
-38 -18 -9 8 -37 17 -61 20 -35 4 -50 1 -69 -14 -33 -26 -89 -25 -111 2 -24
30 -148 33 -179 6 -20 -18 -21 -18 -32 2 -8 16 -20 21 -50 21 -22 0 -49 -5
-60 -12 -15 -9 -24 -9 -43 1 -51 27 -87 -12 -87 -94 0 -44 0 -45 34 -45 18 0
39 -7 46 -15 10 -12 7 -17 -16 -27 -16 -7 -33 -18 -37 -25 -4 -7 -21 -13 -36
-13 -28 0 -29 1 -21 36 5 20 6 43 3 52 -4 8 -7 43 -7 76 l-1 61 -148 2 -148 3
-6 -30 c-6 -34 -8 -35 -43 -15 -30 17 -93 19 -122 4 -17 -9 -24 -7 -45 15 -31
34 -76 35 -107 1z m1219 -334 c-1 -81 -2 -87 -25 -98 -14 -7 -45 -13 -69 -13
-32 0 -51 -6 -68 -22 -18 -17 -39 -22 -102 -26 -71 -4 -81 -2 -100 17 -12 12
-33 26 -46 31 -42 16 -31 40 18 40 25 0 54 8 72 20 19 13 47 20 78 20 38 0 51
5 69 25 12 14 32 25 45 25 16 0 23 6 23 19 0 23 44 49 80 48 25 -1 25 -2 25
-86z m-549 -13 c-24 -117 -14 -178 31 -200 37 -18 41 -38 9 -38 -19 0 -29 7
-36 24 -5 13 -14 26 -21 28 -7 2 -12 28 -13 68 l-1 65 -42 3 c-23 2 -50 -1
-60 -6 -24 -12 -67 0 -71 20 -2 12 9 16 59 20 50 4 65 9 77 26 9 15 25 22 44
22 29 0 30 -2 24 -32z m604 -176 c0 -46 4 -60 20 -70 11 -7 20 -18 20 -26 0
-17 -83 -106 -98 -106 -6 0 -22 -12 -35 -26 -20 -22 -33 -25 -90 -27 -42 -1
-71 3 -79 11 -9 9 -9 12 3 12 45 1 86 84 53 111 -33 27 -10 49 52 49 22 0 37
6 41 15 3 9 21 22 39 30 19 8 34 18 33 22 -1 4 -1 25 0 46 1 34 3 37 21 27 16
-9 20 -21 20 -68z m-385 -172 c3 -5 0 -18 -7 -29 -13 -18 -18 -21 -38 -21 -6
0 -10 -35 -10 -85 l0 -85 -55 0 c-41 0 -55 4 -55 14 0 8 6 18 13 23 12 8 17 9
37 12 6 0 10 18 10 40 0 35 -3 39 -31 45 -22 4 -30 11 -27 23 2 10 12 19 23
21 11 2 25 10 32 18 20 26 96 43 108 24z"/>
<path d="M6503 399 c-34 -12 -43 -41 -43 -133 l0 -86 83 0 83 0 3 49 c2 45 0
50 -21 53 -20 3 -23 9 -26 56 -2 30 -7 50 -13 47 -5 -4 -9 -1 -9 6 0 7 -3 9
-7 6 -3 -4 -11 -3 -17 2 -6 5 -21 5 -33 0z"/>
<path d="M3617 291 c-23 -23 -28 -35 -25 -67 l3 -39 81 -3 80 -3 3 49 c2 49 2
49 -34 55 -19 3 -42 13 -51 21 -20 21 -24 20 -57 -13z"/>
</g>
</svg>
